<mxfile host="www.draw.io" modified="2019-12-09T04:42:44.669Z" agent="Mozilla/5.0 (Windows NT 10.0; Win64; x64) AppleWebKit/537.36 (KHTML, like Gecko) Chrome/78.0.3904.108 Safari/537.36" etag="GVuTcfC9izcSECzrmYDc" version="12.3.8" type="github" pages="1">
  <diagram id="f3Q_cKEoPb3BcpEbv52P" name="Page-1">
    <mxGraphModel dx="1422" dy="762" grid="1" gridSize="10" guides="1" tooltips="1" connect="1" arrows="1" fold="1" page="1" pageScale="1" pageWidth="1169" pageHeight="827" math="0" shadow="0">
      <root>
        <mxCell id="0"/>
        <mxCell id="1" parent="0"/>
        <mxCell id="Yy9OKe_4KE1ZiuBnPWdF-10" style="edgeStyle=orthogonalEdgeStyle;rounded=0;orthogonalLoop=1;jettySize=auto;html=1;strokeWidth=4;" parent="1" edge="1">
          <mxGeometry relative="1" as="geometry">
            <mxPoint x="430" y="120" as="targetPoint"/>
            <mxPoint x="80" y="120" as="sourcePoint"/>
          </mxGeometry>
        </mxCell>
        <mxCell id="Yy9OKe_4KE1ZiuBnPWdF-2" value="" style="endArrow=none;html=1;strokeColor=#000000;strokeWidth=4;" parent="1" edge="1">
          <mxGeometry width="50" height="50" relative="1" as="geometry">
            <mxPoint x="430" y="640" as="sourcePoint"/>
            <mxPoint x="430" y="80" as="targetPoint"/>
          </mxGeometry>
        </mxCell>
        <mxCell id="Yy9OKe_4KE1ZiuBnPWdF-3" value="&lt;font style=&quot;font-size: 24px&quot;&gt;業務&lt;/font&gt;" style="text;html=1;align=center;verticalAlign=middle;resizable=0;points=[];;autosize=1;" parent="1" vertex="1">
          <mxGeometry x="400" y="50" width="60" height="20" as="geometry"/>
        </mxCell>
        <mxCell id="Yy9OKe_4KE1ZiuBnPWdF-4" value="" style="endArrow=none;html=1;strokeWidth=4;" parent="1" edge="1">
          <mxGeometry width="50" height="50" relative="1" as="geometry">
            <mxPoint x="760" y="640" as="sourcePoint"/>
            <mxPoint x="760" y="80" as="targetPoint"/>
          </mxGeometry>
        </mxCell>
        <mxCell id="Yy9OKe_4KE1ZiuBnPWdF-5" value="&lt;span style=&quot;font-size: 24px&quot;&gt;DS30&lt;/span&gt;" style="text;html=1;align=center;verticalAlign=middle;resizable=0;points=[];;autosize=1;" parent="1" vertex="1">
          <mxGeometry x="725" y="50" width="70" height="20" as="geometry"/>
        </mxCell>
        <mxCell id="Yy9OKe_4KE1ZiuBnPWdF-6" value="" style="endArrow=none;html=1;strokeWidth=4;" parent="1" edge="1">
          <mxGeometry width="50" height="50" relative="1" as="geometry">
            <mxPoint x="1100" y="640" as="sourcePoint"/>
            <mxPoint x="1100" y="80" as="targetPoint"/>
          </mxGeometry>
        </mxCell>
        <mxCell id="Yy9OKe_4KE1ZiuBnPWdF-7" value="&lt;span style=&quot;font-size: 24px&quot;&gt;Subcon&lt;/span&gt;" style="text;html=1;align=center;verticalAlign=middle;resizable=0;points=[];;autosize=1;" parent="1" vertex="1">
          <mxGeometry x="1050" y="50" width="100" height="20" as="geometry"/>
        </mxCell>
        <mxCell id="Yy9OKe_4KE1ZiuBnPWdF-12" value="" style="endArrow=none;html=1;strokeWidth=4;" parent="1" edge="1">
          <mxGeometry width="50" height="50" relative="1" as="geometry">
            <mxPoint x="75" y="640" as="sourcePoint"/>
            <mxPoint x="75" y="80" as="targetPoint"/>
          </mxGeometry>
        </mxCell>
        <mxCell id="Yy9OKe_4KE1ZiuBnPWdF-13" value="&lt;span style=&quot;font-size: 24px&quot;&gt;Huawei 華為&lt;/span&gt;" style="text;html=1;align=center;verticalAlign=middle;resizable=0;points=[];;autosize=1;" parent="1" vertex="1">
          <mxGeometry x="5" y="50" width="150" height="20" as="geometry"/>
        </mxCell>
        <mxCell id="Yy9OKe_4KE1ZiuBnPWdF-14" value="&lt;b&gt;華為發起PO&lt;/b&gt;" style="text;html=1;align=center;verticalAlign=middle;resizable=0;points=[];;autosize=1;" parent="1" vertex="1">
          <mxGeometry x="75" y="90" width="80" height="20" as="geometry"/>
        </mxCell>
        <mxCell id="Yy9OKe_4KE1ZiuBnPWdF-16" value="" style="endArrow=classic;html=1;fontStyle=0;strokeWidth=4;" parent="1" edge="1">
          <mxGeometry width="50" height="50" relative="1" as="geometry">
            <mxPoint x="760" y="200" as="sourcePoint"/>
            <mxPoint x="70" y="200" as="targetPoint"/>
          </mxGeometry>
        </mxCell>
        <mxCell id="Yy9OKe_4KE1ZiuBnPWdF-17" value="" style="endArrow=classic;html=1;strokeWidth=4;" parent="1" edge="1">
          <mxGeometry width="50" height="50" relative="1" as="geometry">
            <mxPoint x="430" y="170" as="sourcePoint"/>
            <mxPoint x="760" y="170" as="targetPoint"/>
          </mxGeometry>
        </mxCell>
        <mxCell id="Yy9OKe_4KE1ZiuBnPWdF-18" value="&lt;b&gt;業務接受華為PO&lt;br&gt;Pass Order to SAP&lt;/b&gt;" style="text;html=1;align=center;verticalAlign=middle;resizable=0;points=[];;autosize=1;fillColor=#d5e8d4;strokeColor=#82b366;" parent="1" vertex="1">
          <mxGeometry x="436" y="125" width="120" height="30" as="geometry"/>
        </mxCell>
        <mxCell id="Yy9OKe_4KE1ZiuBnPWdF-19" value="&lt;b&gt;DS 開出DN，並產生出貨單&lt;/b&gt;" style="text;html=1;align=center;verticalAlign=middle;resizable=0;points=[];;autosize=1;" parent="1" vertex="1">
          <mxGeometry x="584" y="145" width="170" height="20" as="geometry"/>
        </mxCell>
        <mxCell id="Yy9OKe_4KE1ZiuBnPWdF-21" value="&lt;b&gt;取得滿足該PO需要之DN單(一對多)[詳細資料&lt;br&gt;包含 LOT,Carton Qty...、Box Qty ...,Lot,DateCode]&lt;/b&gt;" style="text;html=1;align=left;verticalAlign=middle;resizable=0;points=[];;autosize=1;" parent="1" vertex="1">
          <mxGeometry x="770" y="200" width="290" height="30" as="geometry"/>
        </mxCell>
        <mxCell id="Yy9OKe_4KE1ZiuBnPWdF-22" value="＃透過PO預約ASN&lt;br&gt;取得ASN單號與09號碼" style="text;html=1;align=left;verticalAlign=middle;resizable=0;points=[];;autosize=1;fontStyle=1" parent="1" vertex="1">
          <mxGeometry x="110" y="165" width="140" height="30" as="geometry"/>
        </mxCell>
        <mxCell id="Yy9OKe_4KE1ZiuBnPWdF-23" value="" style="endArrow=classic;html=1;strokeWidth=4;" parent="1" edge="1">
          <mxGeometry width="50" height="50" relative="1" as="geometry">
            <mxPoint x="760" y="255.5" as="sourcePoint"/>
            <mxPoint x="70" y="255.5" as="targetPoint"/>
          </mxGeometry>
        </mxCell>
        <mxCell id="Yy9OKe_4KE1ZiuBnPWdF-24" value="＃系統Job 到華為系統登記Inner Box&lt;br&gt;並自動產生流水碼" style="text;html=1;align=left;verticalAlign=middle;resizable=0;points=[];;autosize=1;fontStyle=1" parent="1" vertex="1">
          <mxGeometry x="100" y="260" width="220" height="30" as="geometry"/>
        </mxCell>
        <mxCell id="Yy9OKe_4KE1ZiuBnPWdF-26" value="" style="endArrow=classic;html=1;strokeWidth=4;" parent="1" edge="1">
          <mxGeometry width="50" height="50" relative="1" as="geometry">
            <mxPoint x="760" y="350" as="sourcePoint"/>
            <mxPoint x="1100" y="350" as="targetPoint"/>
          </mxGeometry>
        </mxCell>
        <mxCell id="Yy9OKe_4KE1ZiuBnPWdF-27" value="DS30 AutoMail 告知Subocn&lt;br&gt;開始撿料備貨與加貼客標" style="text;html=1;align=left;verticalAlign=middle;resizable=0;points=[];;autosize=1;fontStyle=1" parent="1" vertex="1">
          <mxGeometry x="770" y="314" width="170" height="30" as="geometry"/>
        </mxCell>
        <mxCell id="Yy9OKe_4KE1ZiuBnPWdF-30" value="" style="endArrow=classic;html=1;strokeWidth=4;" parent="1" edge="1">
          <mxGeometry width="50" height="50" relative="1" as="geometry">
            <mxPoint x="1102" y="399.5" as="sourcePoint"/>
            <mxPoint x="762" y="399.5" as="targetPoint"/>
          </mxGeometry>
        </mxCell>
        <mxCell id="Yy9OKe_4KE1ZiuBnPWdF-31" value="＃Subcon&amp;nbsp; 透過IMAS包裝出貨紀錄與檢查&lt;br&gt;客標與出貨內容相符與否,並產生外標籤" style="text;html=1;align=center;verticalAlign=middle;resizable=0;points=[];;autosize=1;fontStyle=1" parent="1" vertex="1">
          <mxGeometry x="850" y="361" width="250" height="30" as="geometry"/>
        </mxCell>
        <mxCell id="Yy9OKe_4KE1ZiuBnPWdF-33" value="＃取得外標籤資料與09條碼" style="text;html=1;align=center;verticalAlign=middle;resizable=0;points=[];;autosize=1;fontStyle=1" parent="1" vertex="1">
          <mxGeometry x="580" y="413" width="170" height="20" as="geometry"/>
        </mxCell>
        <mxCell id="Yy9OKe_4KE1ZiuBnPWdF-36" value="＃透過CustPartNo 查詢&lt;br&gt;包裝資訊與其他資料" style="text;html=1;align=center;verticalAlign=middle;resizable=0;points=[];;autosize=1;fontStyle=1" parent="1" vertex="1">
          <mxGeometry x="80" y="403" width="150" height="30" as="geometry"/>
        </mxCell>
        <mxCell id="Yy9OKe_4KE1ZiuBnPWdF-39" value="" style="endArrow=classic;startArrow=classic;html=1;strokeWidth=4;" parent="1" edge="1">
          <mxGeometry width="50" height="50" relative="1" as="geometry">
            <mxPoint x="70" y="437" as="sourcePoint"/>
            <mxPoint x="770" y="437" as="targetPoint"/>
          </mxGeometry>
        </mxCell>
        <mxCell id="Yy9OKe_4KE1ZiuBnPWdF-40" value="" style="endArrow=classic;html=1;strokeWidth=4;" parent="1" edge="1">
          <mxGeometry width="50" height="50" relative="1" as="geometry">
            <mxPoint x="1100" y="470" as="sourcePoint"/>
            <mxPoint x="760" y="470" as="targetPoint"/>
          </mxGeometry>
        </mxCell>
        <mxCell id="Yy9OKe_4KE1ZiuBnPWdF-41" value="包裝完成" style="text;html=1;align=center;verticalAlign=middle;resizable=0;points=[];;autosize=1;fontStyle=1" parent="1" vertex="1">
          <mxGeometry x="1030" y="450" width="70" height="20" as="geometry"/>
        </mxCell>
        <mxCell id="Yy9OKe_4KE1ZiuBnPWdF-42" value="Subcon包裝資料回傳 StockOut" style="text;html=1;align=center;verticalAlign=middle;resizable=0;points=[];;autosize=1;fontStyle=1;strokeWidth=4;" parent="1" vertex="1">
          <mxGeometry x="770" y="490" width="190" height="20" as="geometry"/>
        </mxCell>
        <mxCell id="Yy9OKe_4KE1ZiuBnPWdF-43" value="" style="endArrow=classic;html=1;strokeWidth=4;" parent="1" edge="1">
          <mxGeometry width="50" height="50" relative="1" as="geometry">
            <mxPoint x="760" y="501" as="sourcePoint"/>
            <mxPoint x="70" y="501" as="targetPoint"/>
          </mxGeometry>
        </mxCell>
        <mxCell id="Yy9OKe_4KE1ZiuBnPWdF-47" value="＃根據包裝結果進行&lt;br&gt;1.創建外標籤(PKGID) 2.外標籤綁定內標籤(PKGIDvsPSNID) &lt;br&gt;3.ASN綁定PKGID+09條碼" style="text;html=1;align=left;verticalAlign=middle;resizable=0;points=[];;autosize=1;fontStyle=1" parent="1" vertex="1">
          <mxGeometry x="90" y="500" width="340" height="50" as="geometry"/>
        </mxCell>
        <mxCell id="Yy9OKe_4KE1ZiuBnPWdF-48" value="" style="endArrow=classic;html=1;strokeWidth=4;" parent="1" edge="1">
          <mxGeometry width="50" height="50" relative="1" as="geometry">
            <mxPoint x="430" y="590" as="sourcePoint"/>
            <mxPoint x="70" y="590" as="targetPoint"/>
          </mxGeometry>
        </mxCell>
        <mxCell id="Yy9OKe_4KE1ZiuBnPWdF-49" value="業務確認發貨日&lt;br&gt;" style="text;html=1;align=center;verticalAlign=middle;resizable=0;points=[];;autosize=1;fontStyle=1;fillColor=#d5e8d4;strokeColor=#82b366;" parent="1" vertex="1">
          <mxGeometry x="441" y="580" width="110" height="20" as="geometry"/>
        </mxCell>
        <mxCell id="Yy9OKe_4KE1ZiuBnPWdF-52" value="＃為需要透過API執行之動作" style="text;html=1;align=center;verticalAlign=middle;resizable=0;points=[];;autosize=1;fontStyle=1" parent="1" vertex="1">
          <mxGeometry x="754" y="609" width="180" height="20" as="geometry"/>
        </mxCell>
        <mxCell id="fsR2cgbqaecfNtGQx9zy-1" value="&lt;span style=&quot;font-weight: 700&quot;&gt;＃&lt;/span&gt;&lt;b&gt;取回流水碼後產生標籤並上傳至FTP&lt;/b&gt;" style="text;html=1;" vertex="1" parent="1">
          <mxGeometry x="770" y="267" width="220" height="30" as="geometry"/>
        </mxCell>
        <mxCell id="fsR2cgbqaecfNtGQx9zy-2" value="" style="endArrow=classic;html=1;strokeWidth=4;" edge="1" parent="1">
          <mxGeometry width="50" height="50" relative="1" as="geometry">
            <mxPoint x="760" y="294.5" as="sourcePoint"/>
            <mxPoint x="1100" y="294.5" as="targetPoint"/>
          </mxGeometry>
        </mxCell>
        <mxCell id="fsR2cgbqaecfNtGQx9zy-7" value="Text" style="text;html=1;align=center;verticalAlign=middle;resizable=0;points=[];;autosize=1;" vertex="1" parent="1">
          <mxGeometry x="156" y="181" width="40" height="20" as="geometry"/>
        </mxCell>
      </root>
    </mxGraphModel>
  </diagram>
</mxfile>
